<?xml version="1.0" encoding="UTF-8"?>
<svg xmlns="http://www.w3.org/2000/svg" width="32" height="32" viewBox="-70 -70 640 640">
  <defs>
    <!-- Purple gradient with shine -->
    <linearGradient id="purpleShine" x1="0%" y1="0%" x2="100%" y2="100%">
      <stop offset="0%" stop-color="#9B5FFF"/>
      <stop offset="50%" stop-color="#7B3FE4"/>
      <stop offset="100%" stop-color="#5A2DB8"/>
    </linearGradient>
    <!-- Top-left highlight -->
    <radialGradient id="highlight" cx="30%" cy="30%" r="50%">
      <stop offset="0%" stop-color="#FFFFFF" stop-opacity="0.3"/>
      <stop offset="100%" stop-color="#FFFFFF" stop-opacity="0"/>
    </radialGradient>
  </defs>
  <!-- Polygon purple circle with gradient -->
  <circle cx="246" cy="250" r="310" fill="url(#purpleShine)"/>
  <!-- Shine overlay -->
  <circle cx="246" cy="250" r="310" fill="url(#highlight)"/>
  <!-- White PV Logo -->
  <path fill="#FFFFFF" d="M253.23,157.89c-.57-1-1.36-1.75-2.36-2.26l-109.04-62.52c-.93-.57-1.97-.86-3.12-.86-1.07,0-2.18.25-3.33.75L12.17,161.44c-1,.57-1.79,1.4-2.36,2.47-.57.93-.86,2.01-.86,3.22v233.12c0,1.58.5,2.94,1.5,4.08,1,1.22,2.29,1.97,3.87,2.26,1.5.21,2.94-.07,4.3-.86l57.47-33.3c1-.64,1.79-1.4,2.36-2.26.57-1.07.86-2.15.86-3.22v-164.47l62.63-35.45,47.7,27.18v51.57l-50.38,28.79-41.79-22.45c-1.36-.72-2.76-.93-4.19-.64-1.58.36-2.86,1.11-3.87,2.26-.93,1.29-1.4,2.65-1.4,4.08v57.47c0,1.15.32,2.26.97,3.33s1.5,1.9,2.58,2.47l47.48,24.28c.93.36,1.97.54,3.12.54,1.15-.07,2.18-.36,3.12-.86l105.82-64.13c.93-.64,1.68-1.47,2.26-2.47.5-1,.75-2.04.75-3.12v-114.2c0-1.07-.29-2.15-.86-3.22M279.45,111.7c-1.07-.64-2.26-.97-3.55-.97h-59.94c-1.43,0-2.72.43-3.87,1.29-1.22.93-2.01,2.04-2.36,3.33-.36,1.43-.29,2.79.21,4.08.5,1.43,1.36,2.54,2.58,3.33l49.2,30.62v84.98c0,1,.21,1.93.64,2.79l76.49,162.75c.64,1.5,1.75,2.61,3.33,3.33,1.58.64,3.15.68,4.73.11,1.58-.64,2.76-1.72,3.55-3.22l32.12-65.21c.43-.86.64-1.79.64-2.79,0-.93-.18-1.86-.54-2.79l-100.77-218.83c-.57-1.15-1.4-2.08-2.47-2.79M417.28,112.34c-1.07.72-1.9,1.61-2.47,2.69l-62.74,129.45c-.43.93-.64,1.9-.64,2.9,0,.93.21,1.83.64,2.69l30.29,65.85c.57,1.43,1.68,2.51,3.33,3.22,1.58.64,3.15.68,4.73.11,1.58-.57,2.76-1.61,3.55-3.12l96.47-195.41c.64-1.43.79-2.83.43-4.19-.29-1.5-1.04-2.72-2.26-3.65-1.15-1-2.47-1.5-3.97-1.5h-64.03c-1.22,0-2.33.32-3.33.97Z"/>
</svg>
